<svg width="16" height="17" viewBox="0 0 16 17" fill="none" xmlns="http://www.w3.org/2000/svg">
<path fill-rule="evenodd" clip-rule="evenodd" d="M2.4 2.22744C1.95817 2.22744 1.6 2.58561 1.6 3.02744V14.2274C1.6 14.6693 1.95817 15.0274 2.4 15.0274H13.6C14.0418 15.0274 14.4 14.6693 14.4 14.2274V3.02744C14.4 2.58561 14.0418 2.22744 13.6 2.22744H2.4ZM0 3.02744C0 1.70196 1.07452 0.627441 2.4 0.627441H13.6C14.9255 0.627441 16 1.70196 16 3.02744V14.2274C16 15.5529 14.9255 16.6274 13.6 16.6274H2.4C1.07452 16.6274 0 15.5529 0 14.2274V3.02744Z" fill="#F9FAFB"/>
<path fill-rule="evenodd" clip-rule="evenodd" d="M0 6.22749C0 5.78566 0.358172 5.42749 0.8 5.42749H15.2C15.6418 5.42749 16 5.78566 16 6.22749C16 6.66932 15.6418 7.02749 15.2 7.02749H0.8C0.358172 7.02749 0 6.66932 0 6.22749Z" fill="#F9FAFB"/>
<path fill-rule="evenodd" clip-rule="evenodd" d="M5.5998 5.42749C6.04163 5.42749 6.3998 5.78566 6.3998 6.22749V15.8275C6.3998 16.2693 6.04163 16.6275 5.5998 16.6275C5.15798 16.6275 4.7998 16.2693 4.7998 15.8275V6.22749C4.7998 5.78566 5.15798 5.42749 5.5998 5.42749Z" fill="#F9FAFB"/>
</svg>
